HIERARCHY
ROOT pelvis
{
  OFFSET 0 100 0
  CHANNELS 6 Xposition Yposition Zposition Zrotation Xrotation Yrotation
  JOINT pelvis_right_femur
  {
    OFFSET -10.78128 -3.44521 -0.5502486
    CHANNELS 3 Zrotation Xrotation Yrotation
    JOINT right_femur_tibia
    {
      OFFSET -0.8047443 -44.0398 -0.1307829
      CHANNELS 3 Zrotation Xrotation Yrotation
      JOINT right_tibia_foot
      {
        OFFSET 3.006224 -47.83518 -5
        CHANNELS 3 Zrotation Xrotation Yrotation
        End Site
        {
          OFFSET 0 -5 15
        }
      }
    }
  }
  JOINT pelvis_left_femur
  {
    OFFSET 10.78128 -3.44521 -0.5502486
    CHANNELS 3 Zrotation Xrotation Yrotation
    JOINT left_femur_tibia
    {
      OFFSET 0.8047443 -44.0398 -0.1307829
      CHANNELS 3 Zrotation Xrotation Yrotation
      JOINT left_tibia_foot
      {
        OFFSET -4.370144 -48.10324 -4.275266
        CHANNELS 3 Zrotation Xrotation Yrotation
        End Site
        {
          OFFSET 0 -5 15
        }
      }
    }
  }
  JOINT pelvis_spine1
  {
    OFFSET 0 6.468898 -3.129235
    CHANNELS 3 Zrotation Xrotation Yrotation
    JOINT spine1
    {
      OFFSET 0 23.15396 4.99043
      CHANNELS 3 Zrotation Xrotation Yrotation
      JOINT spine2
      {
        OFFSET 0 20.79997 -5.064912
        CHANNELS 3 Zrotation Xrotation Yrotation
        JOINT neck
        {
          OFFSET 0 14.38658 9.616178
          CHANNELS 3 Zrotation Xrotation Yrotation
          End Site
          {
            OFFSET 0 20 0
          }
        }
      }
      JOINT right_manubrium
      {
        OFFSET -5.722621 16.35077 3.967754
        CHANNELS 3 Zrotation Xrotation Yrotation
        JOINT right_clavicle
        {
          OFFSET -13.16364 1.694482 -4.693211
          CHANNELS 3 Zrotation Xrotation Yrotation
          JOINT right_humerus
          {
            OFFSET -28.5034 -0.3100689 -2.792744
            CHANNELS 3 Zrotation Xrotation Yrotation
            JOINT right_radius
            {
              OFFSET -25.15693 0.02248979 -1.271978
              CHANNELS 3 Zrotation Xrotation Yrotation
              End Site
              {
                OFFSET -15 0 0
              }
            }
          }
        }
      }
      JOINT left_manubrium
      {
        OFFSET 5.722621 16.35077 3.967754
        CHANNELS 3 Zrotation Xrotation Yrotation
        JOINT left_clavicle
        {
          OFFSET 13.16364 1.694482 -4.693211
          CHANNELS 3 Zrotation Xrotation Yrotation
          JOINT left_humerus
          {
            OFFSET 29.39168 -1.063119 -2.237045
            CHANNELS 3 Zrotation Xrotation Yrotation
            JOINT left_radius
            {
              OFFSET 24.59957 -0.9528479 0.9047498
              CHANNELS 3 Zrotation Xrotation Yrotation
              End Site
              {
                OFFSET 15 -0 -0
              }
            }
          }
        }
      }
    }
  }
}
MOTION
Frames: 19
Frame Time: 0.0416666666667
0 103.5113 0 0.3641029 -0.5601633 -0.2958734 4.871327 -16.47865 11.3958 -0 43.51746 -0 -7.571212 -16.3082 -2.957586 -6.549153 9.400216 -22.79177 -0 7.575546 -0 13.56375 -12.78824 29.75214 -3.327036 -4.568536 4.922943 2.577756 11.07834 -8.026115 1.181299 21.45238 6.601806 3.369801 -24.55173 8.998765 7.831639 -20.60336 12.37387 84.90443 37.76122 -18.09705 -0 0 16.98044 -6.646569 8.009349 3.564931 5.905099 -20.384 -1.393216 -92.97169 20.50469 21.56722 0 0 -12.70229 15.44935 15.91249 -4.055772
0.2969707 104.2866 1.552867 0.3598635 -0.6557313 -0.5222274 4.649625 -17.21994 10.74141 -0 43.12456 -0 -7.624479 -15.23496 -2.980358 -6.479206 9.557317 -22.0724 -0 7.316651 -0 13.20473 -13.12415 28.9593 -3.340273 -4.312141 4.754289 2.540685 11.10729 -8.104771 1.09213 21.42745 6.723306 3.420573 -24.31529 8.907722 7.708 -20.36932 12.35566 85.16598 37.69099 -18.3046 -0 0 16.48281 -7.460139 8.401711 3.928865 5.971287 -20.63884 -1.604498 -92.32571 20.21825 20.83996 0 0 -13.29866 15.36214 15.61966 -3.961904
0.6869833 104.0734 3.707214 0.002000174 1.755086 -0.6036092 5.510294 -25.55521 8.445097 -0 26.74682 -0 -6.505767 -13.12924 -1.879151 -6.571642 10.09965 -20.98382 -0 5.183765 -0 8.988529 -20.62274 25.60217 -3.349919 -2.857332 5.266098 2.945533 9.45906 -7.933293 1.631335 20.46142 6.730287 3.939373 -25.86914 9.209045 6.187876 -19.7501 11.36106 84.88691 35.05409 -18.72398 -0 0 17.28876 -6.64386 7.368397 3.57543 8.124701 -21.11985 -0.483512 -93.49065 22.15614 20.57551 0 0 -15.71101 13.04512 15.96888 -1.583373
1.070928 103.4744 6.418406 -0.1980873 2.922507 -0.4716419 5.80118 -29.78349 7.025604 -0 19.90994 -0 -6.27165 -9.902793 -1.458556 -6.471595 11.03345 -19.61221 -0 5.343176 -0 6.261424 -23.70066 22.8921 -3.329773 -2.169966 5.186988 3.098965 8.916522 -8.067688 1.699142 19.84957 6.981794 4.336741 -26.36068 9.214748 5.819229 -19.0648 11.0102 85.21453 34.67014 -19.66006 -0 0 16.59041 -7.301797 7.863037 3.689218 8.965459 -21.69077 -0.2213064 -93.18707 22.71751 19.80914 0 0 -17.66601 11.63976 15.71599 -0.05186751
1.387476 102.6816 10.03481 -0.4925784 3.825183 -0.05481965 5.973157 -33.74846 5.349841 -0 14.11015 -0 -6.149261 -5.086725 -1.386649 -6.146435 12.79356 -17.278 -0 7.097537 -0 2.789329 -25.5964 19.08832 -3.111841 -1.543943 4.710871 3.200947 8.655325 -8.445965 1.57356 19.18301 7.422855 4.723103 -26.40683 9.072717 5.631833 -17.96933 10.77354 86.16158 34.75565 -21.3625 -0 0 14.7089 -9.146743 9.392183 4.220532 9.501819 -22.53094 -0.3367125 -91.80481 22.7611 18.08252 0 0 -20.44447 10.02603 14.87478 1.768885
1.6108 101.8956 14.51929 -0.8294261 4.085702 0.5501093 6.189968 -35.56455 4.34586 -0 11.23393 -0 -5.993292 -1.199769 -1.738904 -5.710145 14.54148 -15.07626 -0 10.28635 -0 -0.09128299 -25.35863 15.88925 -2.662863 -1.253635 4.095352 3.228178 8.713706 -8.865116 1.366088 18.73909 7.796038 4.876827 -26.06505 8.875763 5.587862 -16.96305 10.70276 87.28676 34.92469 -23.04233 -0 0 12.65376 -11.18558 11.1444 4.931765 9.480626 -23.14143 -0.7293033 -90.21055 22.45794 16.36057 0 0 -22.71228 8.682907 13.81186 3.3643
1.729221 101.2888 19.89101 -1.189139 3.681419 1.216722 6.476685 -35.42362 3.831947 -0 10.12957 -0 -5.616551 1.654647 -2.50522 -5.157004 16.11329 -12.86969 -0 15.30489 -0 -2.564361 -23.25805 13.17913 -1.96124 -1.18303 3.424802 3.189739 9.015645 -9.273109 1.120664 18.51079 8.065996 4.795079 -25.33327 8.622044 5.505687 -16.00416 10.7409 88.55054 34.767 -24.62661 -0 0 10.4889 -13.47644 13.0186 5.874198 9.011931 -23.52929 -1.377094 -88.44004 21.82511 14.54288 0 0 -24.58248 7.517697 12.49168 4.806894
1.766738 101.0167 26.00423 -1.497886 2.734752 1.78212 6.836095 -33.33057 3.85481 -0 10.35702 -0 -5.078256 2.867007 -3.4435 -4.563404 16.85901 -11.07706 -0 21.86352 -0 -4.413304 -19.84228 11.35619 -1.122803 -1.256062 2.937859 3.09696 9.445263 -9.519378 0.9229315 18.52411 8.152862 4.531865 -24.43232 8.358845 5.354073 -15.28794 10.85867 89.56616 34.1589 -25.66927 -0 0 8.790008 -15.46526 14.52771 6.813677 8.23367 -23.57553 -2.09626 -87.04331 21.15409 13.18294 0 0 -25.60332 6.576755 11.20023 6.023046
1.753892 101.1905 32.65265 -1.669184 1.335521 2.095504 7.101798 -29.52965 4.158719 -0 11.23662 -0 -4.475953 2.570547 -4.350318 -3.981132 16.36234 -9.71562 -0 29.87952 -0 -5.757791 -15.67387 10.35706 -0.2872951 -1.345754 2.778658 2.94634 9.951299 -9.528739 0.8063472 18.76955 8.051561 4.176559 -23.44528 8.076697 5.125648 -14.85769 11.04163 90.18074 33.12135 -26.02778 -0 0 7.71259 -17.04939 15.53776 7.655141 7.299664 -23.34063 -2.796647 -86.15782 20.56586 12.40581 0 0 -25.76865 5.82397 10.05882 7.019603
1.71915 101.8624 39.56435 -1.638917 -0.2974468 2.071519 7.135874 -24.54082 4.501335 -0 12.17351 -0 -3.998625 1.181617 -4.963303 -3.490985 14.30027 -8.809321 -0 38.73688 -0 -6.702643 -11.52528 10.07849 0.3598996 -1.326101 3.045332 2.735812 10.46646 -9.25138 0.7922192 19.20342 7.79035 3.854499 -22.51195 7.770617 4.879596 -14.75578 11.27099 90.29117 31.88924 -25.64927 -0 0 7.375431 -18.10727 15.95891 8.284012 6.391052 -22.93128 -3.364627 -85.91137 20.20587 12.36513 0 0 -25.1309 5.229652 9.231832 7.805384
1.676839 102.9954 46.46214 -1.374059 -1.978194 1.710191 6.869461 -18.90093 4.686502 -0 12.70167 -0 -3.770611 -0.6778124 -5.136143 -3.151419 10.60338 -8.244174 -0 47.58409 -0 -7.321989 -8.04128 10.37637 0.6683334 -1.115463 3.72886 2.454946 10.95231 -8.689909 0.8754653 19.77462 7.419915 3.658396 -21.69335 7.428401 4.664644 -14.97073 11.52741 89.92624 30.72319 -24.61342 -0 0 7.715701 -18.72085 15.85532 8.693746 5.646754 -22.48755 -3.749675 -86.25686 20.0858 13.02569 0 0 -23.89532 4.778876 8.796801 8.374539
1.627327 104.4622 53.11113 -0.9047121 -3.523326 1.096598 6.356214 -13.13957 4.622094 -0 12.59175 -0 -3.863011 -2.478258 -4.836386 -2.946721 5.486011 -7.876068 -0 55.14325 -0 -7.622 -5.670977 11.12042 0.5788861 -0.7011666 4.702582 2.100184 11.35939 -7.895518 1.027654 20.4251 6.997489 3.620757 -21.01778 7.053871 4.495453 -15.46853 11.78183 89.16072 29.85095 -23.02227 -0 0 8.609894 -19.02986 15.34373 8.944162 5.148498 -22.10485 -3.937518 -87.06306 20.14687 14.2549 0 0 -22.28978 4.481638 8.767009 8.701319
1.564098 106.0554 59.35928 -0.3287295 -4.801155 0.3600637 5.742574 -7.615438 4.298559 -0 11.85268 -0 -4.284961 -4.037773 -4.149579 -2.750365 -0.6093379 -7.542544 -0 59.95478 -0 -7.584331 -4.521597 12.2058 0.1654989 -0.134221 5.748229 1.683356 11.62246 -6.955798 1.200119 21.10521 6.568651 3.695026 -20.46485 6.663998 4.322078 -16.20387 11.99684 88.07526 29.3588 -20.93217 -0 0 9.936237 -19.18204 14.53782 9.144813 4.905381 -21.78916 -3.947382 -88.13995 20.28422 15.83664 0 0 -20.48127 4.358464 9.076091 8.747957
1.484378 107.5206 65.15686 0.1970268 -5.715269 -0.3804221 5.216919 -2.516501 3.751744 -0 10.66072 -0 -4.996067 -5.593247 -3.235812 -2.353349 -7.088159 -7.087608 -0 60.68707 -0 -7.226093 -4.376246 13.52826 -0.3828514 0.5004545 6.61362 1.243536 11.65393 -5.982316 1.33186 21.77064 6.166106 3.782336 -19.98933 6.281816 4.052595 -17.12111 12.12688 86.73172 29.19329 -18.35241 -0 0 11.6166 -19.26391 13.50253 9.411551 4.869923 -21.45744 -3.807649 -89.28925 20.40624 17.52444 0 0 -18.53313 4.409698 9.599532 8.498297
1.397779 108.604 70.55734 0.5094946 -6.208631 -1.060264 4.925203 2.116632 3.029036 -0 9.248802 -0 -5.894323 -7.616469 -2.283888 -1.564067 -13.31167 -6.39368 -0 56.65089 -0 -6.630779 -4.811645 14.96454 -0.8462427 1.110543 7.102259 0.8403185 11.37115 -5.087709 1.369889 22.38116 5.814425 3.785141 -19.53341 5.927788 3.604194 -18.1404 12.12336 85.1808 29.21674 -15.30647 -0 0 13.58795 -19.30798 12.2662 9.835838 4.968047 -20.9879 -3.541159 -90.34242 20.4601 19.08502 0 0 -16.42723 4.592294 10.18943 7.988484
1.327393 109.1149 75.70339 0.5177483 -6.279696 -1.679804 4.886372 6.321676 2.187053 -0 7.857743 -0 -6.812276 -10.42938 -1.461925 -0.3560133 -18.67971 -5.464559 -0 48.27531 -0 -5.931386 -5.385434 16.37383 -1.084201 1.600534 7.154815 0.5277068 10.7448 -4.356943 1.299287 22.90139 5.53461 3.660181 -19.04524 5.624776 2.95888 -19.14153 11.94498 83.49744 29.28712 -11.92566 -0 0 15.72821 -19.34223 10.87841 10.46215 5.129665 -20.28887 -3.16129 -91.1875 20.43579 20.33647 0 0 -14.13258 4.819418 10.72032 7.324617
1.302862 108.9866 80.79687 0.2674078 -6.013441 -2.281318 4.953339 10.1596 1.317614 -0 6.79214 -0 -7.547963 -13.82254 -0.8619194 1.012271 -22.7243 -4.51865 -0 37.27789 -0 -5.26004 -5.80623 17.64107 -1.109679 1.873616 6.879968 0.3186415 9.846356 -3.815566 1.169164 23.31037 5.337652 3.43913 -18.50455 5.410169 2.183753 -19.97468 11.57598 81.82314 29.29384 -8.500679 -0 0 17.80856 -19.43418 9.45827 11.27455 5.303456 -19.34695 -2.684099 -91.79482 20.36305 21.19198 0 0 -11.66275 4.985221 11.13191 6.67446
1.35141 108.3105 86.05288 -0.06623829 -5.594818 -2.911436 4.869752 13.66058 0.5666909 -0 6.525445 -0 -7.92934 -16.93478 -0.4659425 2.035798 -25.19802 -3.968175 -0 26.26027 -0 -4.70417 -6.015882 18.72512 -1.071924 1.859526 6.497134 0.1693731 8.858279 -3.418174 1.087365 23.61239 5.212841 3.204871 -17.95047 5.33502 1.401669 -20.50876 11.04722 80.38511 29.13806 -5.442705 -0 0 19.53006 -19.67827 8.179061 12.19488 5.451975 -18.23363 -2.151873 -92.23347 20.31229 21.69722 0 0 -9.091815 4.998474 11.44543 6.232935
1.491481 107.3197 91.64453 -0.2759984 -5.274682 -3.586456 4.416226 16.75881 0.09941491 -0 7.695484 -0 -7.894417 -18.55997 -0.1843706 2.230522 -26.10278 -4.193959 -0 17.7443 -0 -4.296973 -6.151568 19.65613 -1.14886 1.563185 6.206507 0.003299836 8.023096 -3.076588 1.167999 23.83744 5.127578 3.040811 -17.48254 5.436643 0.7309373 -20.6938 10.44501 79.45784 28.70625 -3.151586 -0 0 20.63855 -20.12942 7.187922 13.10275 5.539951 -17.07767 -1.651026 -92.64732 20.38312 22.01957 0 0 -6.536496 4.808516 11.73559 6.163214
